# xmcd
#
# Track frame offsets:
#	150
#	14275
#	23988
#	47637
#	63084
#	76101
#	93572
#	112545
#	128279
#	139860
#	155359
#	172203
#
# Disc length: 2536 seconds
#
# Revision: 0
# Processed by: cddbd v1.4PL0 Copyright (c) Steve Scherf et al.
# Submitted via: dBpowerAMP V4.0
#
DISCID=8709e60c
DTITLE=Chris Uncle Gus Gussa - Turn Up The Blues-a-lator
DYEAR=1900
DGENRE=Blues
TTITLE0=Turn Up The Blues-a-lator
TTITLE1=A Little Bit Black an a Whole Lotta Blues
TTITLE2=Good Mornin Mister Blues
TTITLE3=Five Ways To Tell The Blues To Go
TTITLE4=Back Street Alley
TTITLE5=Whatll This Old Ford Do
TTITLE6=Preachermans Blues
TTITLE7=Blues From The Buick
TTITLE8=Big Juicy Burger Blues
TTITLE9=Where Do Ya Go
TTITLE10=When The Blues Has Got Your Name
TTITLE11=Jumpin an Jivin an Praisin The Lord
EXTD=
EXTT0=
EXTT1=
EXTT2=
EXTT3=
EXTT4=
EXTT5=
EXTT6=
EXTT7=
EXTT8=
EXTT9=
EXTT10=
EXTT11=
PLAYORDER=
